<svg width="16" height="18" viewBox="0 0 16 18" fill="none" xmlns="http://www.w3.org/2000/svg">
<path d="M8.16352 3.99317C9.69641 3.99317 10.7304 4.65531 11.32 5.2086L13.6239 2.95916C12.2089 1.64396 10.3676 0.836697 8.16352 0.836697C4.97076 0.836697 2.21338 2.6689 0.870972 5.33558L3.51044 7.38548C4.17257 5.41722 6.00478 3.99317 8.16352 3.99317Z" fill="#EA4335"/>
<path d="M16 9.18141C16 8.5102 15.9456 8.02041 15.8276 7.51247H8.16321V10.542H12.6621C12.5714 11.2948 12.0816 12.4286 10.9932 13.1905L13.5691 15.186C15.1111 13.7619 16 11.6667 16 9.18141Z" fill="#4285F4"/>
<path d="M3.51929 10.6145C3.34695 10.1066 3.24718 9.56236 3.24718 9C3.24718 8.43764 3.34695 7.89342 3.51022 7.38548L0.870752 5.33558C0.317462 6.44216 0 7.6848 0 9C0 10.3152 0.317462 11.5578 0.870752 12.6644L3.51929 10.6145Z" fill="#FBBC05"/>
<path d="M8.16349 17.1633C10.3676 17.1633 12.2179 16.4377 13.5694 15.186L10.9934 13.1905C10.3041 13.6712 9.37891 14.0068 8.16349 14.0068C6.00475 14.0068 4.17254 12.5828 3.51947 10.6145L0.880005 12.6644C2.22241 15.3311 4.97073 17.1633 8.16349 17.1633Z" fill="#34A853"/>
</svg>
