<svg width="22" height="22" viewBox="0 0 22 22" fill="none" xmlns="http://www.w3.org/2000/svg">
<path d="M21.1392 7.92744L14.2044 1.28066C13.3461 0.460539 12.1835 0 10.9714 0C9.75941 0 8.59682 0.460539 7.73853 1.28066L0.803668 7.92744C0.548057 8.17084 0.345401 8.46043 0.207446 8.77944C0.0694923 9.09845 -0.00101522 9.44053 1.10441e-05 9.78584V18.3874C1.10441e-05 19.0845 0.28899 19.7531 0.803375 20.2461C1.31776 20.739 2.01542 21.016 2.74287 21.016H19.2C19.9275 21.016 20.6251 20.739 21.1395 20.2461C21.6539 19.7531 21.9429 19.0845 21.9429 18.3874V9.78584C21.9439 9.44053 21.8734 9.09845 21.7354 8.77944C21.5975 8.46043 21.3948 8.17084 21.1392 7.92744ZM13.7143 19.2636H8.22858V15.8167C8.22858 15.1195 8.51756 14.4509 9.03195 13.958C9.54633 13.465 10.244 13.1881 10.9714 13.1881C11.6989 13.1881 12.3965 13.465 12.9109 13.958C13.4253 14.4509 13.7143 15.1195 13.7143 15.8167V19.2636ZM20.1143 18.3874C20.1143 18.6198 20.018 18.8427 19.8465 19.007C19.675 19.1713 19.4425 19.2636 19.2 19.2636H15.5429V15.8167C15.5429 14.6548 15.0612 13.5405 14.2039 12.7189C13.3466 11.8973 12.1839 11.4357 10.9714 11.4357C9.75902 11.4357 8.59626 11.8973 7.73895 12.7189C6.88164 13.5405 6.40001 14.6548 6.40001 15.8167V19.2636H2.74287C2.50038 19.2636 2.26783 19.1713 2.09637 19.007C1.92491 18.8427 1.82858 18.6198 1.82858 18.3874V9.78584C1.82943 9.55364 1.92567 9.33109 2.09647 9.16638L9.03133 2.52223C9.54671 2.03062 10.2443 1.75463 10.9714 1.75463C11.6986 1.75463 12.3962 2.03062 12.9116 2.52223L19.8464 9.16901C20.0165 9.33307 20.1127 9.55455 20.1143 9.78584V18.3874Z" fill="#192434" fill-opacity="0.25"/>
</svg>
