<svg width="22" height="22" viewBox="0 0 22 22" fill="none" xmlns="http://www.w3.org/2000/svg">
<path d="M10.9714 14.0441C9.45661 14.0441 8.22858 15.221 8.22858 16.6727V21.9298H13.7143V16.6727C13.7143 15.221 12.4863 14.0441 10.9714 14.0441Z" fill="#0C7B93"/>
<path d="M15.5429 16.6726V21.9298H19.2C20.7148 21.9298 21.9429 20.7529 21.9429 19.3012V11.3095C21.9431 10.8543 21.7585 10.4169 21.4281 10.0898L13.6585 2.04025C12.2876 0.618765 9.97384 0.531488 8.49056 1.84528C8.4201 1.90771 8.35221 1.97273 8.28711 2.04025L0.531214 10.0872C0.190843 10.4156 -0.000128507 10.8598 6.48784e-08 11.3226V19.3012C6.48784e-08 20.7529 1.22803 21.9298 2.74286 21.9298H6.39999V16.6726C6.41709 14.2834 8.42996 12.3324 10.8603 12.2762C13.3719 12.2181 15.5237 14.2024 15.5429 16.6726Z" fill="#0C7B93"/>
<path d="M10.9714 14.0441C9.45661 14.0441 8.22858 15.221 8.22858 16.6727V21.9298H13.7143V16.6727C13.7143 15.221 12.4863 14.0441 10.9714 14.0441Z" fill="#0C7B93"/>
</svg>
