<svg width="20" height="22" viewBox="0 0 20 22" fill="none" xmlns="http://www.w3.org/2000/svg">
<path d="M19.7204 11.9685L17.9832 5.97889C17.474 4.22418 16.3674 2.68292 14.8393 1.60011C13.3112 0.517294 11.4492 -0.0449278 9.54935 0.00280716C7.64952 0.0505421 5.82085 0.705494 4.35402 1.86356C2.88719 3.02162 1.86637 4.61633 1.45384 6.39421L0.10893 12.1902C-0.0396275 12.8306 -0.0361929 13.4949 0.11898 14.1339C0.274154 14.7729 0.577103 15.3703 1.00546 15.8821C1.43382 16.3939 1.97665 16.8069 2.59388 17.0907C3.2111 17.3745 3.88696 17.5218 4.57156 17.5218H5.59007C5.79992 18.5122 6.36057 19.4025 7.17704 20.0421C7.99351 20.6816 9.01558 21.031 10.0701 21.031C11.1246 21.031 12.1466 20.6816 12.9631 20.0421C13.7796 19.4025 14.3402 18.5122 14.5501 17.5218H15.3162C16.021 17.5219 16.7162 17.3658 17.3476 17.0657C17.9789 16.7657 18.5294 16.3298 18.9559 15.7921C19.3823 15.2544 19.6733 14.6296 19.8061 13.9663C19.9389 13.303 19.9089 12.6193 19.7204 11.9685ZM10.0701 19.2742C9.50481 19.272 8.95407 19.1024 8.49321 18.7887C8.03234 18.475 7.68386 18.0326 7.49544 17.5218H12.6447C12.4563 18.0326 12.1078 18.475 11.6469 18.7887C11.1861 19.1024 10.6353 19.272 10.0701 19.2742ZM17.4996 14.7312C17.2448 15.0551 16.9147 15.3176 16.5355 15.4978C16.1564 15.678 15.7386 15.771 15.3153 15.7694H4.57156C4.16085 15.7694 3.75539 15.6809 3.38513 15.5106C3.01486 15.3403 2.68923 15.0924 2.43228 14.7854C2.17532 14.4783 1.9936 14.1199 1.90053 13.7365C1.80746 13.3532 1.80541 12.9547 1.89453 12.5705L3.23853 6.7736C3.56251 5.37713 4.3643 4.12453 5.51643 3.21491C6.66857 2.30528 8.10493 1.79085 9.59718 1.75339C11.0894 1.71593 12.5519 2.15758 13.7522 3.00814C14.9524 3.85871 15.8216 5.06936 16.2214 6.44765L17.9585 12.4373C18.0733 12.8275 18.0916 13.238 18.0119 13.6362C17.9323 14.0344 17.7568 14.4093 17.4996 14.7312Z" fill="#192434" fill-opacity="0.25"/>
</svg>
