<svg width="16" height="21" viewBox="0 0 16 21" fill="none" xmlns="http://www.w3.org/2000/svg">
<path d="M14.1548 5.38633L11.4059 2.57032C10.8946 2.0437 10.2864 1.62618 9.61647 1.34193C8.94659 1.05768 8.22832 0.912343 7.50325 0.914327H3.94285C2.89753 0.915609 1.89537 1.34156 1.15622 2.09874C0.417061 2.85593 0.00125214 3.88253 0 4.95335V16.2626C0.00125214 17.3334 0.417061 18.36 1.15622 19.1172C1.89537 19.8744 2.89753 20.3003 3.94285 20.3016H11.8286C12.8739 20.3003 13.876 19.8744 14.6152 19.1172C15.3543 18.36 15.7702 17.3334 15.7714 16.2626V9.38415C15.7733 8.64139 15.6315 7.90561 15.354 7.21939C15.0765 6.53317 14.6689 5.91013 14.1548 5.38633ZM13.0398 6.52856C13.2804 6.78255 13.4874 7.0677 13.6557 7.37676H10.2514C10.0423 7.37676 9.8417 7.29165 9.69381 7.14016C9.54593 6.98867 9.46284 6.7832 9.46284 6.56895V3.08166C9.76454 3.25404 10.0429 3.46614 10.2908 3.71256L13.0398 6.52856ZM14.1943 16.2626C14.1943 16.9053 13.945 17.5217 13.5014 17.9762C13.0577 18.4307 12.456 18.686 11.8286 18.686H3.94285C3.31543 18.686 2.7137 18.4307 2.27004 17.9762C1.82638 17.5217 1.57714 16.9053 1.57714 16.2626V4.95335C1.57714 4.31062 1.82638 3.69421 2.27004 3.23974C2.7137 2.78526 3.31543 2.52993 3.94285 2.52993H7.50325C7.63336 2.52993 7.75796 2.55578 7.8857 2.5679V6.56895C7.8857 7.21168 8.13495 7.82809 8.5786 8.28257C9.02226 8.73704 9.62399 8.99237 10.2514 8.99237H14.1572C14.169 9.12323 14.1943 9.25086 14.1943 9.38415V16.2626ZM11.6109 11.667C11.7549 11.8222 11.8329 12.0295 11.8277 12.2436C11.8225 12.4576 11.7346 12.6608 11.5833 12.8084L8.75313 15.5663C8.30825 16.0148 7.70834 16.2651 7.08412 16.2625C6.4599 16.2599 5.86197 16.0048 5.42063 15.5525L4.20623 14.4426C4.05001 14.2999 3.95551 14.0995 3.94353 13.8855C3.9376 13.7795 3.9521 13.6733 3.98622 13.5731C4.02034 13.4728 4.07339 13.3804 4.14236 13.3012C4.21133 13.2219 4.29486 13.1574 4.38818 13.1112C4.4815 13.065 4.58279 13.0382 4.68626 13.0321C4.89522 13.0198 5.10038 13.0931 5.25661 13.2358L6.50649 14.378C6.57805 14.4603 6.66529 14.5268 6.76284 14.5732C6.8604 14.6197 6.96621 14.6453 7.07376 14.6483C7.18131 14.6513 7.28833 14.6318 7.38823 14.5908C7.48813 14.5499 7.5788 14.4885 7.65465 14.4103L10.4935 11.6387C10.5686 11.5652 10.6571 11.5076 10.7539 11.4692C10.8508 11.4308 10.9541 11.4124 11.0579 11.415C11.1618 11.4177 11.2641 11.4413 11.359 11.4845C11.4539 11.5278 11.5395 11.5898 11.6109 11.667Z" fill="#192434" fill-opacity="0.25"/>
</svg>
