<svg width="16" height="22" viewBox="0 0 16 22" fill="none" xmlns="http://www.w3.org/2000/svg">
<path d="M7.88571 10.9714C8.92548 10.9714 9.94189 10.6497 10.8064 10.0469C11.671 9.44414 12.3448 8.58739 12.7427 7.58501C13.1406 6.58263 13.2447 5.47963 13.0418 4.41551C12.839 3.35138 12.3383 2.37392 11.6031 1.60673C10.8679 0.83954 9.93112 0.317076 8.91133 0.105409C7.89154 -0.106259 6.83451 0.00237688 5.87389 0.417578C4.91327 0.832778 4.09222 1.5359 3.51456 2.43802C2.9369 3.34014 2.62857 4.40075 2.62857 5.48572C2.62996 6.94017 3.18429 8.33464 4.16989 9.3631C5.15549 10.3916 6.49186 10.97 7.88571 10.9714ZM7.88571 1.82857C8.57889 1.82857 9.2565 2.04306 9.83285 2.44491C10.4092 2.84677 10.8584 3.41793 11.1237 4.08619C11.389 4.75445 11.4584 5.48977 11.3231 6.19919C11.1879 6.90861 10.8541 7.56025 10.364 8.07171C9.8738 8.58317 9.24932 8.93148 8.56946 9.07259C7.8896 9.2137 7.18491 9.14128 6.5445 8.86448C5.90409 8.58768 5.35672 8.11893 4.97161 7.51752C4.5865 6.9161 4.38095 6.20903 4.38095 5.48572C4.38095 4.51578 4.7502 3.58557 5.40747 2.89973C6.06474 2.21388 6.95619 1.82857 7.88571 1.82857Z" fill="#192434" fill-opacity="0.25"/>
<path d="M7.88571 12.8C5.795 12.8024 3.79059 13.6701 2.31223 15.2128C0.833878 16.7554 0.00231915 18.8469 0 21.0286C0 21.271 0.0923126 21.5036 0.25663 21.6751C0.420948 21.8465 0.64381 21.9428 0.87619 21.9428C1.10857 21.9428 1.33143 21.8465 1.49575 21.6751C1.66007 21.5036 1.75238 21.271 1.75238 21.0286C1.75238 19.3312 2.39857 17.7033 3.54879 16.5031C4.69902 15.3028 6.25905 14.6286 7.88571 14.6286C9.51237 14.6286 11.0724 15.3028 12.2226 16.5031C13.3729 17.7033 14.019 19.3312 14.019 21.0286C14.019 21.271 14.1114 21.5036 14.2757 21.6751C14.44 21.8465 14.6629 21.9428 14.8952 21.9428C15.1276 21.9428 15.3505 21.8465 15.5148 21.6751C15.6791 21.5036 15.7714 21.271 15.7714 21.0286C15.7691 18.8469 14.9376 16.7554 13.4592 15.2128C11.9808 13.6701 9.97642 12.8024 7.88571 12.8Z" fill="#192434" fill-opacity="0.25"/>
</svg>
