<svg width="21" height="22" viewBox="0 0 21 22" fill="none" xmlns="http://www.w3.org/2000/svg">
<path d="M19.9009 3.7276C19.6545 3.41898 19.3459 3.17076 18.9972 3.00058C18.6484 2.8304 18.268 2.74243 17.883 2.74292H3.7168L3.68 2.422C3.60469 1.75496 3.29744 1.13993 2.81651 0.693527C2.33557 0.247122 1.71438 0.000373532 1.0707 6.10352e-05L0.87619 6.10352e-05C0.64381 6.10352e-05 0.420948 0.0963873 0.25663 0.267849C0.0923127 0.439311 0 0.671863 0 0.914347C0 1.15683 0.0923127 1.38938 0.25663 1.56084C0.420948 1.73231 0.64381 1.82863 0.87619 1.82863H1.0707C1.28531 1.82866 1.49245 1.91088 1.65282 2.05969C1.81319 2.2085 1.91565 2.41355 1.94076 2.63595L3.1464 13.3331C3.27157 14.4456 3.78381 15.4714 4.5859 16.2158C5.38799 16.9603 6.4241 17.3715 7.49756 17.3715H16.6476C16.88 17.3715 17.1029 17.2752 17.2672 17.1037C17.4315 16.9322 17.5238 16.6997 17.5238 16.4572C17.5238 16.2147 17.4315 15.9822 17.2672 15.8107C17.1029 15.6392 16.88 15.5429 16.6476 15.5429H7.49756C6.95525 15.5413 6.42668 15.3647 5.98432 15.0374C5.54197 14.71 5.20747 14.2479 5.0267 13.7143H15.4709C16.498 13.7144 17.4926 13.3379 18.2807 12.6505C19.0688 11.9632 19.6004 11.0087 19.7826 9.95389L20.4704 5.97309C20.5391 5.57812 20.5237 5.17224 20.4252 4.78419C20.3268 4.39614 20.1478 4.03542 19.9009 3.7276ZM18.7505 5.64852L18.0618 9.62932C17.9524 10.2629 17.6329 10.8362 17.1592 11.2487C16.6855 11.6612 16.0879 11.8868 15.4709 11.8858H4.74808L3.92358 4.57149H17.883C18.0118 4.57069 18.1391 4.59949 18.2559 4.65584C18.3727 4.71219 18.4762 4.79471 18.559 4.89753C18.6419 5.00035 18.7019 5.12095 18.735 5.25075C18.7681 5.38054 18.7734 5.51635 18.7505 5.64852Z" fill="#192434" fill-opacity="0.25"/>
<path d="M6.13333 21.9429C7.10115 21.9429 7.88571 21.1242 7.88571 20.1143C7.88571 19.1044 7.10115 18.2858 6.13333 18.2858C5.16552 18.2858 4.38095 19.1044 4.38095 20.1143C4.38095 21.1242 5.16552 21.9429 6.13333 21.9429Z" fill="#192434" fill-opacity="0.25"/>
<path d="M14.8952 21.9429C15.863 21.9429 16.6476 21.1242 16.6476 20.1143C16.6476 19.1044 15.863 18.2858 14.8952 18.2858C13.9274 18.2858 13.1429 19.1044 13.1429 20.1143C13.1429 21.1242 13.9274 21.9429 14.8952 21.9429Z" fill="#192434" fill-opacity="0.25"/>
</svg>
