<svg width="18" height="18" viewBox="0 0 18 18" fill="none" xmlns="http://www.w3.org/2000/svg">
<path d="M12.7471 0C12.5483 0 12.3575 0.0789998 12.2169 0.21962C12.0763 0.360241 11.9973 0.550963 11.9973 0.749831C11.9973 2.96108 10.0605 3.74915 8.24814 3.74915H2.99932C2.20385 3.74915 1.44096 4.06515 0.878481 4.62763C0.315999 5.19012 0 5.95301 0 6.74848L0 8.24814C0.00163775 8.69709 0.104573 9.13988 0.301134 9.54352C0.497695 9.94716 0.782814 10.3012 1.13524 10.5794L3.81364 16.557C4.00412 16.9852 4.31466 17.3491 4.70764 17.6044C5.10063 17.8598 5.55921 17.9958 6.02789 17.9959C6.40079 17.9957 6.76771 17.9022 7.09525 17.724C7.42279 17.5457 7.70055 17.2884 7.90325 16.9754C8.10595 16.6624 8.22716 16.3037 8.25583 15.9319C8.28451 15.5601 8.21974 15.187 8.06743 14.8466L6.4178 11.2475H8.24814C10.0605 11.2475 11.9973 12.0355 11.9973 14.2468C11.9973 14.4457 12.0763 14.6364 12.2169 14.777C12.3575 14.9176 12.5483 14.9966 12.7471 14.9966C12.946 14.9966 13.1367 14.9176 13.2773 14.777C13.418 14.6364 13.497 14.4457 13.497 14.2468V0.749831C13.497 0.550963 13.418 0.360241 13.2773 0.21962C13.1367 0.0789998 12.946 0 12.7471 0ZM6.70124 15.4608C6.7509 15.5729 6.77179 15.6957 6.76201 15.818C6.75222 15.9403 6.71207 16.0582 6.6452 16.161C6.57833 16.2638 6.48685 16.3484 6.37906 16.4069C6.27126 16.4655 6.15056 16.4962 6.02789 16.4963C5.84898 16.4961 5.67395 16.4441 5.52407 16.3464C5.37419 16.2487 5.2559 16.1095 5.18358 15.9459L3.07806 11.2475H4.76817L6.70124 15.4608ZM11.9973 10.9475C10.926 10.1221 9.59961 9.69766 8.24814 9.7478H2.99932C2.60159 9.7478 2.22014 9.5898 1.9389 9.30856C1.65766 9.02732 1.49966 8.64587 1.49966 8.24814V6.74848C1.49966 6.35074 1.65766 5.9693 1.9389 5.68806C2.22014 5.40681 2.60159 5.24881 2.99932 5.24881H8.24814C9.59915 5.30003 10.9255 4.87692 11.9973 4.05283V10.9475ZM17.921 11.5864C17.877 11.6745 17.816 11.7532 17.7417 11.8178C17.6673 11.8824 17.5809 11.9317 17.4874 11.9629C17.394 11.9941 17.2953 12.0065 17.197 11.9996C17.0987 11.9926 17.0028 11.9664 16.9147 11.9223L15.415 11.1725C15.237 11.0836 15.1017 10.9276 15.0387 10.7389C14.9757 10.5502 14.9902 10.3442 15.0791 10.1662C15.168 9.98822 15.3239 9.85283 15.5127 9.78984C15.7014 9.72684 15.9074 9.74139 16.0854 9.83028L17.585 10.5801C17.7621 10.6689 17.8968 10.8242 17.9598 11.0121C18.0227 11.1999 18.0088 11.405 17.921 11.5826V11.5864ZM15.0791 4.83791C15.035 4.74979 15.0088 4.65384 15.0018 4.55557C14.9949 4.45729 15.0073 4.35861 15.0385 4.26516C15.0697 4.17171 15.119 4.08532 15.1836 4.01093C15.2482 3.93655 15.3269 3.87562 15.415 3.83163L16.9147 3.0818C17.0927 2.99291 17.2987 2.97836 17.4874 3.04136C17.6761 3.10436 17.8321 3.23974 17.921 3.41773C18.0098 3.59571 18.0244 3.80172 17.9614 3.99044C17.8984 4.17915 17.763 4.33511 17.585 4.424L16.0854 5.17383C15.9972 5.21789 15.9013 5.24415 15.803 5.25111C15.7048 5.25807 15.6061 5.2456 15.5126 5.2144C15.4192 5.1832 15.3328 5.13389 15.2584 5.06929C15.184 5.00469 15.1231 4.92607 15.0791 4.83791ZM14.9966 7.49831C14.9966 7.29944 15.0756 7.10872 15.2162 6.9681C15.3569 6.82748 15.5476 6.74848 15.7464 6.74848H17.2461C17.445 6.74848 17.6357 6.82748 17.7763 6.9681C17.9169 7.10872 17.9959 7.29944 17.9959 7.49831C17.9959 7.69717 17.9169 7.8879 17.7763 8.02852C17.6357 8.16914 17.445 8.24814 17.2461 8.24814H15.7464C15.5476 8.24814 15.3569 8.16914 15.2162 8.02852C15.0756 7.8879 14.9966 7.69717 14.9966 7.49831Z" fill="#0C7B93" fill-opacity="0.75"/>
</svg>
