<svg width="16" height="20" viewBox="0 0 16 20" fill="none" xmlns="http://www.w3.org/2000/svg">
<path d="M15.3079 4.03866H11.8275V0.473331L15.3079 4.03866ZM15.77 5.65412V19.3856H0V2.4232C0 1.78052 0.249222 1.16417 0.692839 0.709737C1.13646 0.2553 1.73813 0 2.3655 0L10.2505 0V5.65412H15.77ZM11.5208 10.9335L10.4082 9.79132L7.57748 12.687C7.42751 12.834 7.22796 12.9161 7.02041 12.9161C6.81286 12.9161 6.61331 12.834 6.46333 12.687L5.21277 11.4068L4.1002 12.5489L5.34997 13.8292C5.56963 14.0542 5.83042 14.2328 6.11744 14.3546C6.40447 14.4764 6.7121 14.5391 7.02278 14.5391C7.33345 14.5391 7.64108 14.4764 7.92811 14.3546C8.21513 14.2328 8.47591 14.0542 8.69558 13.8292L11.5208 10.9335Z" fill="#0C7B93"/>
</svg>
