<svg width="21" height="22" viewBox="0 0 21 22" fill="none" xmlns="http://www.w3.org/2000/svg">
<path d="M19.8984 3.57178C19.652 3.27605 19.3435 3.03821 18.9948 2.87514C18.6461 2.71207 18.2658 2.62777 17.8808 2.62824H3.71634L3.67954 2.32074C3.60424 1.68157 3.29703 1.09224 2.81615 0.664488C2.33528 0.236738 1.71416 0.000299439 1.07057 0L0.876081 0C0.64373 0 0.420895 0.0923012 0.256598 0.256598C0.0923012 0.420895 0 0.64373 0 0.876081C0 1.10843 0.0923012 1.33127 0.256598 1.49556C0.420895 1.65986 0.64373 1.75216 0.876081 1.75216H1.07057C1.28515 1.75219 1.49226 1.83097 1.65262 1.97356C1.81297 2.11615 1.91541 2.31263 1.94052 2.52574L3.14601 12.7759C3.27116 13.8419 3.78334 14.8249 4.58533 15.5382C5.38732 16.2515 6.4233 16.6456 7.49663 16.6455H16.6455C16.8779 16.6455 17.1007 16.5532 17.265 16.3889C17.4293 16.2247 17.5216 16.0018 17.5216 15.7695C17.5216 15.5371 17.4293 15.3143 17.265 15.15C17.1007 14.9857 16.8779 14.8934 16.6455 14.8934H7.49663C6.95438 14.8919 6.42588 14.7227 5.98358 14.409C5.54128 14.0953 5.20683 13.6525 5.02608 13.1412H15.469C16.496 13.1413 17.4904 12.7805 18.2784 12.1218C19.0664 11.4632 19.598 10.5486 19.7802 9.5379L20.4679 5.72344C20.5365 5.34498 20.5211 4.95605 20.4227 4.58422C20.3243 4.21238 20.1453 3.86674 19.8984 3.57178Z" fill="#0C7B93"/>
<path d="M6.13253 21.0259C7.10023 21.0259 7.8847 20.2414 7.8847 19.2737C7.8847 18.306 7.10023 17.5216 6.13253 17.5216C5.16484 17.5216 4.38037 18.306 4.38037 19.2737C4.38037 20.2414 5.16484 21.0259 6.13253 21.0259Z" fill="#0C7B93"/>
<path d="M14.8934 21.0259C15.8611 21.0259 16.6456 20.2414 16.6456 19.2737C16.6456 18.306 15.8611 17.5216 14.8934 17.5216C13.9257 17.5216 13.1412 18.306 13.1412 19.2737C13.1412 20.2414 13.9257 21.0259 14.8934 21.0259Z" fill="#0C7B93"/>
</svg>
