<svg width="20" height="23" viewBox="0 0 20 23" fill="none" xmlns="http://www.w3.org/2000/svg">
<path d="M2.75471 16.5327H17.1345C17.577 16.5327 18.0131 16.4261 18.4057 16.2219C18.7984 16.0178 19.1361 15.722 19.3902 15.3598C19.6444 14.9975 19.8076 14.5793 19.8659 14.1406C19.9243 13.7019 19.8761 13.2556 19.7255 12.8395L17.106 5.59723C16.6586 3.98778 15.6964 2.56917 14.3664 1.55836C13.0365 0.547553 11.4121 0.00019479 9.74161 9.34382e-10C8.00267 -2.718e-05 6.31571 0.592961 4.95926 1.68106C3.60282 2.76916 2.65799 4.2873 2.28078 5.98483L0.122342 12.9653C-0.00473959 13.3774 -0.0333087 13.8136 0.0389332 14.2388C0.111175 14.664 0.282211 15.0663 0.538278 15.4133C0.794346 15.7603 1.1283 16.0424 1.51326 16.2368C1.89822 16.4312 2.32344 16.5326 2.75471 16.5327Z" fill="#0C7B93"/>
<path d="M5.53955 18.3696C5.75036 19.4077 6.31358 20.3411 7.1338 21.0115C7.95402 21.6819 8.98078 22.0481 10.0401 22.0481C11.0995 22.0481 12.1262 21.6819 12.9464 21.0115C13.7666 20.3411 14.3299 19.4077 14.5407 18.3696H5.53955Z" fill="#0C7B93"/>
</svg>
