<svg width="22" height="22" viewBox="0 0 22 22" fill="none" xmlns="http://www.w3.org/2000/svg">
<path d="M10.9714 13.1298C9.45654 13.1298 8.22852 14.3067 8.22852 15.7584V21.0155H13.7142V15.7584C13.7142 14.3067 12.4862 13.1298 10.9714 13.1298Z" fill="#0C7B93"/>
<path d="M15.5429 15.7583V21.0155H19.2C20.7148 21.0155 21.9429 19.8386 21.9429 18.3869V10.3952C21.9431 9.93999 21.7585 9.50258 21.4281 9.17553L13.6585 1.12594C12.2876 -0.295542 9.97384 -0.382819 8.49056 0.930974C8.4201 0.993403 8.35221 1.05842 8.28711 1.12594L0.531214 9.1729C0.190843 9.50131 -0.000128507 9.94545 6.48784e-08 10.4083V18.3869C6.48784e-08 19.8386 1.22803 21.0155 2.74286 21.0155H6.39999V15.7583C6.41709 13.3691 8.42996 11.4181 10.8603 11.3619C13.3719 11.3038 15.5237 13.2881 15.5429 15.7583Z" fill="#0C7B93"/>
<path d="M10.9714 13.1298C9.45654 13.1298 8.22852 14.3067 8.22852 15.7584V21.0155H13.7142V15.7584C13.7142 14.3067 12.4862 13.1298 10.9714 13.1298Z" fill="#0C7B93"/>
</svg>
