<svg width="31" height="31" viewBox="0 0 31 31" fill="none" xmlns="http://www.w3.org/2000/svg">
<path d="M20.5474 30.9985C19.5515 30.9974 18.5967 30.6013 17.8925 29.897C17.1883 29.1928 16.7922 28.2379 16.7912 27.2418V19.3761C16.7912 19.0336 16.6552 18.7051 16.413 18.4629C16.1709 18.2207 15.8425 18.0847 15.5 18.0847C15.1575 18.0847 14.8291 18.2207 14.587 18.4629C14.3448 18.7051 14.2088 19.0336 14.2088 19.3761V27.2418C14.2088 28.0664 13.9377 28.8682 13.4372 29.5234C12.9366 30.1787 12.2345 30.6511 11.439 30.8679C10.6435 31.0846 9.79875 31.0336 9.03506 30.7228C8.27137 30.412 7.6311 29.8586 7.21295 29.1479C4.11919 23.8481 0.00536219 15.8622 0.00536219 7.75364C-0.0336038 6.72566 0.140132 5.70071 0.515682 4.74301C0.891232 3.78532 1.4605 2.91551 2.18783 2.1881C2.91515 1.46068 3.78485 0.891343 4.74243 0.515746C5.70001 0.140149 6.72483 -0.0336079 7.75268 0.00536286C9.46873 0.00602298 11.1742 0.273967 12.8078 0.799561C13.6749 1.10032 14.5826 1.26795 15.5 1.29674C16.4174 1.26795 17.3251 1.10032 18.1922 0.799561C19.8258 0.273802 21.5313 0.00585479 23.2473 0.00536286C24.2752 -0.0336079 25.3 0.140149 26.2576 0.515746C27.2151 0.891343 28.0848 1.46068 28.8122 2.1881C29.5395 2.91551 30.1088 3.78532 30.4843 4.74301C30.8599 5.70071 31.0336 6.72566 30.9946 7.75364C30.9946 15.8609 26.8808 23.8468 23.787 29.1479C23.4548 29.7117 22.9812 30.179 22.413 30.5036C21.8448 30.8281 21.2017 30.9987 20.5474 30.9985ZM15.5 15.5019C16.5274 15.5019 17.5126 15.9101 18.2391 16.6366C18.9655 17.3632 19.3737 18.3486 19.3737 19.3761V27.2418C19.3741 27.4987 19.4586 27.7483 19.6143 27.9526C19.7699 28.157 19.9881 28.3047 20.2356 28.3734C20.4831 28.442 20.7462 28.4278 20.9848 28.3328C21.2234 28.2379 21.4244 28.0674 21.5571 27.8475C24.4998 22.8034 28.4122 15.2346 28.4122 7.75364C28.4395 7.06799 28.3245 6.38412 28.0746 5.74506C27.8247 5.10601 27.4452 4.52561 26.9601 4.0404C26.4749 3.55519 25.8946 3.17567 25.2556 2.92573C24.6167 2.67579 23.9329 2.56084 23.2473 2.58812C21.7744 2.58736 20.3108 2.82101 18.9114 3.2803C17.8108 3.65012 16.6608 3.85212 15.5 3.8795C14.3392 3.85224 13.1892 3.65024 12.0886 3.2803C10.6891 2.82114 9.22554 2.58749 7.75268 2.58812C2.64591 2.58812 2.5878 7.54314 2.5878 7.75364C2.5878 15.2359 6.5002 22.8047 9.44418 27.8475C9.57652 28.0678 9.77739 28.2386 10.016 28.3337C10.2547 28.4289 10.518 28.4433 10.7655 28.3746C11.0131 28.3059 11.2313 28.1579 11.3868 27.9533C11.5423 27.7487 11.6264 27.4988 11.6263 27.2418V19.3761C11.6263 18.3486 12.0345 17.3632 12.7609 16.6366C13.4874 15.9101 14.4726 15.5019 15.5 15.5019Z" fill="white"/>
</svg>
