<svg width="37" height="23" viewBox="0 0 37 23" fill="none" xmlns="http://www.w3.org/2000/svg">
<path d="M26.9792 0C23.3624 0 20.259 2.09875 18.5 5.30917C16.741 2.09875 13.6376 0 10.0208 0C4.40146 0 0 5.05137 0 11.5C0 17.9486 4.40146 23 10.0208 23C13.6376 23 16.741 20.9012 18.5 17.6908C20.259 20.9012 23.3624 23 26.9792 23C32.5985 23 37 17.9486 37 11.5C37 5.05137 32.5985 0 26.9792 0ZM10.0208 21.0833C7.73917 21.0833 5.28021 19.1782 3.99137 16.1211C4.42767 16.2275 4.89942 16.2917 5.39583 16.2917C7.52179 16.2917 9.25 15.2174 9.25 13.8958C9.25 12.5743 7.52179 11.5 5.39583 11.5C4.53404 11.5 3.74625 11.683 3.10337 11.9811C3.09721 11.8201 3.08333 11.6639 3.08333 11.5C3.08333 5.85158 6.74017 1.91667 10.0208 1.91667C13.3015 1.91667 16.9583 5.85158 16.9583 11.5C16.9583 17.1484 13.3015 21.0833 10.0208 21.0833ZM26.9792 21.0833C24.6975 21.0833 22.2385 19.1782 20.9497 16.1211C21.386 16.2275 21.8577 16.2917 22.3542 16.2917C24.4801 16.2917 26.2083 15.2174 26.2083 13.8958C26.2083 12.5743 24.4801 11.5 22.3542 11.5C21.4924 11.5 20.7046 11.683 20.0617 11.9811C20.0555 11.8201 20.0417 11.6639 20.0417 11.5C20.0417 5.85158 23.6985 1.91667 26.9792 1.91667C30.2598 1.91667 33.9167 5.85158 33.9167 11.5C33.9167 17.1484 30.2598 21.0833 26.9792 21.0833Z" fill="white"/>
</svg>
