<svg width="28" height="30" viewBox="0 0 28 30" fill="none" xmlns="http://www.w3.org/2000/svg">
<path d="M26.2508 11.2318H24.1468L28.7186 7.4501C29.5449 6.62376 30 5.52488 30 4.35599C30 3.1871 29.5449 2.08822 28.7186 1.26187C27.0659 -0.390828 24.2643 -0.479588 22.4516 1.34938L14.2881 11.2306H3.74813C2.60174 11.2306 1.53536 11.7444 0.82403 12.6407C0.0989436 13.5533 -0.164838 14.7335 0.101444 15.8786C0.887787 19.264 3.17931 22.4994 6.38844 24.7547C6.89225 25.0459 7.49857 25.821 7.49857 26.2323C7.49857 26.9212 6.93851 27.4825 6.24843 27.4825C5.55834 27.4825 4.99828 28.0426 4.99828 28.7326C4.99828 29.4227 5.55709 29.9828 6.24843 29.9828H23.7505C24.4418 29.9828 25.0007 29.4227 25.0007 28.7326C25.0007 28.0426 24.4418 27.4825 23.7505 27.4825C23.0592 27.4825 22.5004 26.9212 22.5004 26.2323C22.5004 25.821 23.1054 25.0459 23.6105 24.7547C26.8196 22.4994 29.1111 19.264 29.8975 15.8774C30.1638 14.7335 29.9 13.5533 29.1749 12.6407C28.4636 11.7444 27.3972 11.2306 26.2508 11.2306V11.2318ZM24.2993 3.02958C25.0294 2.29824 26.2208 2.29949 26.9509 3.02958C27.3047 3.38337 27.4997 3.85468 27.4997 4.35474C27.4997 4.8548 27.3047 5.3261 27.0384 5.60113L20.2238 11.2306H17.5285L24.2993 3.02958ZM20.2151 27.4837H9.78385C9.92261 27.0924 9.99887 26.6724 9.99887 26.2336C9.99887 25.8073 9.90511 25.3847 9.74634 24.9834H20.2538C20.0938 25.3847 20.0013 25.8073 20.0013 26.2336C20.0013 26.6724 20.0763 27.0924 20.2151 27.4837ZM27.4634 15.3135C26.8384 17.9989 25.0344 20.5929 22.4879 22.4831H7.51233C4.96577 20.5929 3.16181 17.9989 2.53673 15.3148C2.44547 14.9172 2.53423 14.5109 2.78176 14.1984C2.92053 14.0246 3.22932 13.7321 3.74813 13.7321H26.2508C26.7696 13.7321 27.0784 14.0234 27.2172 14.1984C27.4647 14.5109 27.5547 14.9172 27.4622 15.3148L27.4634 15.3135Z" fill="white"/>
</svg>
