<svg width="31" height="31" viewBox="0 0 31 31" fill="none" xmlns="http://www.w3.org/2000/svg">
<path d="M10.3329 29.0615C10.3329 30.1316 9.46494 31 8.39548 31C7.32603 31 6.45806 30.1316 6.45806 29.0615C6.45806 27.9915 7.32603 27.1231 8.39548 27.1231C9.46494 27.1231 10.3329 27.9915 10.3329 29.0615ZM22.6032 27.1231C21.5338 27.1231 20.6658 27.9915 20.6658 29.0615C20.6658 30.1316 21.5338 31 22.6032 31C23.6727 31 24.5406 30.1316 24.5406 29.0615C24.5406 27.9915 23.6727 27.1231 22.6032 27.1231ZM1.93742 23.2461C0.867964 23.2461 0 24.1146 0 25.1846C0 26.2546 0.867964 27.1231 1.93742 27.1231C3.00687 27.1231 3.87484 26.2546 3.87484 25.1846C3.87484 24.1146 3.00687 23.2461 1.93742 23.2461ZM15.4994 23.2461C14.4299 23.2461 13.5619 24.1146 13.5619 25.1846C13.5619 26.2546 14.4299 27.1231 15.4994 27.1231C16.5688 27.1231 17.4368 26.2546 17.4368 25.1846C17.4368 24.1146 16.5688 23.2461 15.4994 23.2461ZM29.0613 23.2461C27.9918 23.2461 27.1239 24.1146 27.1239 25.1846C27.1239 26.2546 27.9918 27.1231 29.0613 27.1231C30.1307 27.1231 30.9987 26.2546 30.9987 25.1846C30.9987 24.1146 30.1307 23.2461 29.0613 23.2461ZM27.173 11.6153H30.9987V14.1999H27.8239C27.873 14.3951 27.9234 14.5902 27.9699 14.7931C28.2282 15.929 28.4155 16.7497 28.4155 17.4307C28.4155 20.6369 25.8077 23.2461 22.6032 23.2461C19.3987 23.2461 16.791 20.6369 16.791 17.4307C16.791 16.3452 16.893 15.2635 17.0803 14.1999H13.7402C13.8009 14.5398 13.859 14.8642 13.9094 15.1524C14.0825 16.1423 14.2064 16.8582 14.2064 17.4307C14.2064 20.6369 11.5987 23.2461 8.39419 23.2461C5.1897 23.2461 2.58193 20.6369 2.58193 17.4307C2.58193 16.4007 2.70464 15.31 2.9255 14.1999H0V11.6153H3.62039C5.67147 5.70427 10.7527 0 18.7284 0C16.8426 0.165416 14.0747 3.03047 13.4379 4.94439C12.8335 6.7575 13.0027 9.32533 13.3217 11.6153H17.7545C19.4517 6.76267 23.5332 2.67767 31 1.2768C29.144 2.08062 27.0257 4.25946 26.8604 6.74458C26.7196 8.85234 26.8978 10.3282 27.173 11.6153ZM11.6245 17.4307C11.6245 17.0818 11.2487 14.943 11.2487 14.943C10.7863 12.3584 10.1198 8.63523 10.6351 5.56599C7.038 8.63523 5.16645 13.5085 5.16645 17.4307C5.16645 19.2115 6.61564 20.6615 8.39548 20.6615C10.1753 20.6615 11.6245 19.2115 11.6245 17.4307ZM25.8323 17.4307C25.8323 17.0391 25.2213 14.4429 25.1012 13.9957C24.6181 12.1994 24.0705 10.1679 24.2681 6.7911C20.1517 9.91333 19.3742 14.4545 19.3742 17.432C19.3742 19.2128 20.8234 20.6628 22.6032 20.6628C24.3831 20.6628 25.8323 19.2128 25.8323 17.432V17.4307Z" fill="white"/>
</svg>
