<svg width="33" height="30" viewBox="0 0 33 30" fill="none" xmlns="http://www.w3.org/2000/svg">
<path d="M31.625 11.2021C28.6 11.2021 25.762 12.0639 23.3214 13.5649C22.9006 9.02444 20.8464 4.57078 17.4721 1.02232L16.5 0L15.5279 1.02232C12.1536 4.57078 10.098 9.02588 9.67863 13.5649C7.238 12.0639 4.40137 11.2021 1.375 11.2021H0V12.6481C0 21.7289 6.66738 29.2018 15.125 29.9393L16.5 30L17.875 29.9393C26.3326 29.2018 33 21.7289 33 12.6481V11.2021H31.625ZM16.5 4.16301C19.2844 7.5423 20.7391 11.5419 20.6484 15.6095C18.8843 17.2651 17.4597 19.3141 16.5 21.6219C15.5402 19.3127 14.1157 17.2651 12.3516 15.6095C12.2622 11.5419 13.7156 7.5423 16.5 4.16301ZM2.82563 14.1736C9.251 14.8865 14.3715 20.2714 15.0494 27.0285C8.624 26.3156 3.5035 20.9307 2.82563 14.1736ZM17.9506 27.0285C18.6285 20.2714 23.749 14.8865 30.1744 14.1736C29.4965 20.9307 24.376 26.3156 17.9506 27.0285Z" fill="white"/>
</svg>
