<svg width="14" height="14" viewBox="0 0 14 14" fill="none" xmlns="http://www.w3.org/2000/svg">
<path d="M6.4274 13.9961C6.28904 13.936 6.13922 13.9446 5.99418 13.9227C3.07526 13.4914 0.728861 11.3301 0.156335 8.41879C-0.362754 5.78135 0.41588 3.52274 2.41686 1.71738C3.51324 0.728816 4.82432 0.172512 6.2919 0.0351055C8.37207 -0.158599 10.2042 0.449233 11.75 1.86051C12.8473 2.86243 13.5382 4.10672 13.8521 5.55902C13.9103 5.8262 13.9475 6.09624 13.9723 6.36819C13.9752 6.39586 13.9552 6.43403 14 6.4493C14 6.82335 14 7.19644 14 7.57049C13.9561 7.58481 13.9742 7.62297 13.9714 7.65065C13.9227 8.13634 13.8311 8.61344 13.6842 9.0791C12.854 11.7232 10.5706 13.6154 7.81863 13.9475C7.71939 13.9599 7.61252 13.936 7.51997 13.9952C7.15641 13.9961 6.7919 13.9961 6.4274 13.9961ZM6.9942 13.3616C10.4923 13.373 13.3435 10.5324 13.3664 7.01133C13.3893 3.51511 10.5276 0.644846 7.00946 0.632441C3.51133 0.620991 0.660158 3.46167 0.637257 6.9827C0.614356 10.4789 3.47507 13.3501 6.9942 13.3616Z" fill="#0C7B93"/>
<path d="M5.414 6.57343C5.41877 6.55816 5.42831 6.54194 5.42927 6.52572C5.44263 6.2261 5.64969 6.14117 5.89588 6.05911C6.26993 5.93506 6.64111 5.81674 7.03997 5.84918C7.54284 5.88926 7.99514 6.18507 7.99609 6.75187C7.99609 7.00664 7.96174 7.25855 7.89113 7.50569C7.74227 8.02478 7.56956 8.53814 7.45601 9.06677C7.43406 9.16887 7.41879 9.27288 7.41307 9.37689C7.39589 9.7185 7.53521 9.85877 7.88063 9.86449C8.09247 9.86831 8.29666 9.83778 8.50468 9.75094C8.49896 9.88549 8.45029 9.99808 8.42548 10.1155C8.41881 10.1469 8.39686 10.1584 8.36919 10.1679C7.88827 10.3454 7.41498 10.5439 6.88062 10.5029C6.44455 10.4695 6.03519 10.1937 5.92355 9.81487C5.86439 9.61354 5.89015 9.40838 5.92546 9.20704C6.0142 8.69559 6.19836 8.20894 6.33291 7.70894C6.3997 7.45893 6.47794 7.21084 6.48271 6.94843C6.48939 6.624 6.34531 6.47896 6.01801 6.48564C5.86725 6.4885 5.71935 6.51236 5.57622 6.56389C5.52469 6.58202 5.47412 6.60492 5.414 6.57343Z" fill="#0C7B93"/>
<path d="M7.68407 3.49781C8.20697 3.4959 8.60011 3.86423 8.59247 4.33942C8.58675 4.68676 8.33007 4.98733 7.95029 5.09229C7.5333 5.20775 7.06765 5.01882 6.88635 4.66004C6.63062 4.15431 6.98654 3.5646 7.58578 3.50354C7.62109 3.49972 7.65735 3.49876 7.68407 3.49781Z" fill="#0C7B93"/>
</svg>
