<svg width="14" height="14" viewBox="0 0 14 14" fill="none" xmlns="http://www.w3.org/2000/svg">
<path d="M6.68453 7.15608C4.71175 7.16056 3.10466 5.56244 3.09895 3.59048C3.09325 1.60995 4.69095 0.00531293 6.67433 1.30512e-05C8.652 -0.00528683 10.2652 1.60425 10.2624 3.58029C10.2595 5.55307 8.66016 7.15159 6.68453 7.15608ZM6.68127 6.17927C8.1208 6.17764 9.29085 5.00677 9.28555 3.57254C9.28065 2.13994 8.11998 0.981307 6.68575 0.976822C5.2454 0.972745 4.07658 2.13627 4.07576 3.57539C4.07454 5.01492 5.24133 6.1809 6.68127 6.17927Z" fill="#0C7B93"/>
<path d="M14 9.75711C14.0041 11.3214 12.6559 12.5261 11.0973 12.3467C11.0158 12.3373 10.9766 12.3744 10.9297 12.4213C10.4735 12.8783 10.0141 13.3321 9.56155 13.7924C9.42416 13.9322 9.27088 13.9978 9.07397 13.9946C8.62144 13.9872 8.16891 13.9933 7.71679 13.9917C7.36088 13.9905 7.16723 13.8005 7.1656 13.4487C7.16397 12.986 7.16641 12.5232 7.16438 12.0609C7.16356 11.8885 7.22349 11.7478 7.34702 11.6259C7.80607 11.1718 8.25982 10.7127 8.71928 10.259C8.78981 10.1893 8.81794 10.1236 8.80897 10.0205C8.67851 8.56301 9.67856 7.49569 10.785 7.23151C12.4231 6.84014 13.9955 8.06971 14 9.75711ZM8.142 13.0153C8.37723 13.0153 8.59942 13.0112 8.82161 13.0174C8.91538 13.0198 8.98142 12.9929 9.04828 12.9252C9.51589 12.4511 9.99044 11.9843 10.4576 11.5093C10.6199 11.3442 10.7989 11.2957 11.0239 11.3471C12.1703 11.6084 13.2181 10.6202 13.0016 9.48641C12.8279 8.57646 11.9775 7.98736 11.09 8.16307C10.1865 8.34204 9.61863 9.20103 9.8135 10.1159C9.86731 10.3674 9.80739 10.5562 9.62678 10.7327C9.15795 11.1909 8.69726 11.6577 8.23454 12.1225C8.19337 12.1641 8.13955 12.1971 8.14037 12.2705C8.14363 12.5135 8.142 12.756 8.142 13.0153Z" fill="#0C7B93"/>
<path d="M3.53476 13.3492C2.7516 13.3492 1.96844 13.3504 1.18528 13.3488C0.4698 13.3475 0.009118 12.8922 0.0107487 12.1799C0.0115641 11.7837 -0.0255352 11.3845 0.0335789 10.9915C0.1355 10.3132 0.521577 9.79703 1.03077 9.36611C1.75808 8.7501 2.61666 8.39134 3.52213 8.13694C4.88746 7.75331 6.28092 7.65506 7.69109 7.76065C7.96424 7.78104 8.15381 8.00363 8.14077 8.27759C8.12854 8.53525 7.91328 8.74562 7.64503 8.73216C7.21818 8.71096 6.79174 8.69099 6.36449 8.70322C5.09456 8.73868 3.85928 8.94375 2.69371 9.47251C2.21917 9.68777 1.77887 9.95806 1.41644 10.3405C1.12862 10.6442 0.96269 10.9948 0.98389 11.4253C0.99612 11.674 0.985113 11.9235 0.986336 12.173C0.987151 12.3524 1.00835 12.3728 1.19181 12.3728C2.75813 12.3732 4.32485 12.3728 5.89117 12.3732C5.94702 12.3732 6.00328 12.3703 6.05873 12.376C6.33351 12.4038 6.5296 12.6251 6.51615 12.8901C6.50311 13.1478 6.29356 13.348 6.02163 13.3488C5.1924 13.3508 4.36358 13.3488 3.53476 13.3492Z" fill="#0C7B93"/>
<path d="M10.6953 9.76041C10.6965 9.36781 11.0121 9.05715 11.4055 9.06082C11.7989 9.0649 12.1063 9.37963 12.1022 9.77468C12.0982 10.1571 11.7814 10.4706 11.399 10.4706C11.0092 10.4714 10.6941 10.153 10.6953 9.76041Z" fill="#0C7B93"/>
</svg>
