<svg width="14" height="13" viewBox="0 0 14 13" fill="none" xmlns="http://www.w3.org/2000/svg">
<path d="M0.000761987 2.83612C0.105154 2.5919 0.22631 2.3595 0.451478 2.20138C0.532629 2.14423 0.612638 2.08366 0.699886 2.03679C0.915528 1.92135 1.17117 1.99146 1.29843 2.19376C1.42644 2.39645 1.39063 2.68029 1.18032 2.79764C0.948674 2.92718 0.907146 3.10015 0.908289 3.34475C0.917433 5.20628 0.917052 7.06782 0.907908 8.92897C0.906765 9.12823 0.97001 9.24596 1.13422 9.34159C1.32357 9.45169 1.40396 9.64943 1.35862 9.83688C1.28738 10.1329 0.968105 10.2838 0.699505 10.1375C0.38709 9.9668 0.136396 9.73591 0.0320035 9.3793C0.0266696 9.36064 0.0224786 9.34311 0 9.33854C0.000761987 7.17106 0.000761987 5.00359 0.000761987 2.83612Z" fill="#0C7B93"/>
<path d="M4.87024 6.08603C4.87024 4.48434 4.86948 2.88264 4.87062 1.28132C4.87139 0.634014 5.24933 0.150914 5.85168 0.0282345C5.95303 0.00766082 6.05971 0.00689892 6.16372 0.00689892C8.34033 0.00575594 10.5173 0.0164229 12.694 4.01536e-05C13.4102 -0.00529376 14.0019 0.52124 14 1.30533C13.992 4.49424 13.9969 7.68316 13.9966 10.8725C13.9966 11.5316 13.6247 12.0154 13.0174 12.145C12.9302 12.1636 12.8383 12.1682 12.7484 12.1686C10.5383 12.1697 8.32852 12.1713 6.11838 12.1686C5.49317 12.1678 5.01616 11.7811 4.8912 11.1894C4.8672 11.0771 4.87062 10.9624 4.87062 10.8485C4.87024 9.26047 4.87024 7.67325 4.87024 6.08603ZM5.78311 6.08832C5.78311 7.67554 5.78311 9.26276 5.78311 10.85C5.78311 11.1673 5.87188 11.2565 6.18848 11.2565C8.35062 11.2565 10.5128 11.2565 12.6753 11.2565C12.9877 11.2565 13.0837 11.1605 13.0837 10.8485C13.0837 7.67402 13.0837 4.49958 13.0837 1.32514C13.0837 1.01463 12.9869 0.918998 12.6734 0.918998C10.5112 0.918998 8.3491 0.918998 6.18658 0.918998C5.87073 0.918998 5.78311 1.00777 5.78311 1.32704C5.78311 2.91388 5.78311 4.5011 5.78311 6.08832Z" fill="#0C7B93"/>
<path d="M2.43185 6.08363C2.43185 4.80083 2.43947 3.51764 2.42804 2.23483C2.42347 1.70601 2.65512 1.35093 3.11993 1.12728C3.36338 1.01032 3.62437 1.08309 3.74628 1.30711C3.86858 1.53114 3.79315 1.80355 3.55236 1.92546C3.39082 2.00738 3.33976 2.11101 3.34014 2.29198C3.34662 4.83397 3.34586 7.37634 3.34129 9.91833C3.34091 10.0707 3.3832 10.1603 3.52226 10.2304C3.78591 10.363 3.87354 10.6281 3.75009 10.8613C3.62437 11.099 3.35615 11.1627 3.08869 11.0297C2.6395 10.806 2.42462 10.4548 2.42843 9.94653C2.43833 8.65915 2.43185 7.37139 2.43185 6.08363Z" fill="#0C7B93"/>
</svg>
