<svg width="14" height="16" viewBox="0 0 14 16" fill="none" xmlns="http://www.w3.org/2000/svg">
<path d="M9.14149 15.2263C8.75187 14.9868 8.36022 14.7474 7.97061 14.51C7.64592 14.3111 7.58708 14.098 7.77377 13.7652C7.97263 13.4121 8.16947 13.059 8.37037 12.706C8.51445 12.4523 8.76608 12.365 8.99538 12.4909C9.22672 12.6167 9.28962 12.8845 9.14554 13.1463C9.10902 13.2133 9.07046 13.2802 9.02582 13.3573C9.17193 13.3452 9.29165 13.2823 9.40935 13.2254C11.5827 12.2068 12.8469 10.5123 13.0661 8.1178C13.3542 4.96839 11.1951 2.18425 8.08018 1.60388C7.79812 1.55112 7.62969 1.33196 7.67839 1.0783C7.72709 0.818558 7.95843 0.664334 8.23441 0.723183C10.8136 1.25891 12.6237 2.74229 13.5551 5.20379C14.9208 8.81384 13.0316 12.8541 9.40529 14.1873C9.3647 14.2015 9.32615 14.2178 9.26527 14.2421C9.46211 14.3781 9.69344 14.4572 9.72591 14.7251C9.75229 14.9402 9.64677 15.1005 9.38297 15.2263C9.29977 15.2263 9.22063 15.2263 9.14149 15.2263Z" fill="#0C7B93" fill-opacity="0.75"/>
<path d="M9.73401 6.38489C10.0972 6.58173 10.3306 6.87191 10.4037 7.27979C10.4199 7.36705 10.4219 7.45634 10.4219 7.54562C10.424 8.44661 10.424 9.34963 10.4219 10.2506C10.4199 11.0177 9.90041 11.5372 9.13741 11.5372C7.71084 11.5372 6.28427 11.5372 4.8577 11.5372C4.10282 11.5372 3.5813 11.0136 3.57927 10.2587C3.57724 9.3476 3.57927 8.43647 3.57927 7.52533C3.57927 7.05048 3.78219 6.68522 4.18602 6.43968C4.26922 6.38895 4.27125 6.33416 4.26922 6.25907C4.25095 5.75176 4.32198 5.26271 4.55128 4.8041C5.08498 3.72656 6.22137 3.13402 7.42877 3.30447C8.57125 3.46681 9.51282 4.41042 9.70357 5.58333C9.74213 5.84713 9.73604 6.115 9.73401 6.38489ZM7.0006 10.6463C7.70881 10.6463 8.41702 10.6463 9.12523 10.6463C9.41136 10.6463 9.52906 10.5286 9.53109 10.2405C9.53109 9.34963 9.53109 8.45676 9.53109 7.56592C9.53109 7.27573 9.41745 7.16412 9.12523 7.16412C7.70881 7.16412 6.29239 7.16412 4.87394 7.16412C4.58173 7.16412 4.47012 7.27573 4.47012 7.56794C4.47012 8.45879 4.47012 9.35166 4.47012 10.2425C4.47012 10.5307 4.58781 10.6463 4.87597 10.6463C5.58418 10.6463 6.29239 10.6463 7.0006 10.6463ZM5.16818 6.25907C6.39791 6.25907 7.6175 6.25907 8.83708 6.25907C8.94463 4.96238 7.94826 4.13647 6.94581 4.16285C5.87436 4.19126 5.06266 5.13689 5.16818 6.25907Z" fill="#0C7B93" fill-opacity="0.75"/>
<path d="M4.74201 0.984955C4.64055 0.922048 4.56141 0.877405 4.4843 0.824644C4.27731 0.686654 4.21441 0.430968 4.3321 0.223983C4.45386 0.0129406 4.71969 -0.0662006 4.93682 0.0616427C5.33862 0.295007 5.73635 0.536489 6.13003 0.782029C6.32686 0.903785 6.3918 1.15338 6.28019 1.35834C6.059 1.76622 5.83173 2.17207 5.59633 2.57386C5.47052 2.78897 5.21077 2.85187 5.00176 2.73621C4.78869 2.61851 4.71361 2.36079 4.82521 2.13149C4.8658 2.04829 4.92668 1.97726 4.95103 1.86362C4.64055 1.96509 4.35849 2.0909 4.09062 2.2431C2.21153 3.32266 1.12588 4.93592 0.929039 7.09708C0.677411 9.8589 2.31908 12.4016 4.92262 13.3533C5.25339 13.475 5.59227 13.5623 5.93725 13.6252C6.17061 13.6678 6.31266 13.8302 6.3289 14.0473C6.3431 14.2401 6.21526 14.4227 6.02248 14.4897C5.93522 14.5201 5.84593 14.5181 5.75867 14.4998C2.80813 13.8464 0.900628 12.0728 0.188358 9.13243C-0.635521 5.73139 1.31663 2.21874 4.61214 1.03163C4.6507 1.02351 4.68114 1.00931 4.74201 0.984955Z" fill="#0C7B93" fill-opacity="0.75"/>
<path d="M7.44496 8.90711C7.44496 9.0106 7.44902 9.11409 7.44496 9.21758C7.43481 9.46515 7.23188 9.66199 6.99446 9.65793C6.7611 9.65387 6.56223 9.46312 6.55614 9.22164C6.55005 9.00857 6.55005 8.7955 6.55614 8.58445C6.56223 8.33486 6.76313 8.1441 7.00461 8.14613C7.24 8.14816 7.43278 8.33688 7.44496 8.57837C7.45104 8.68997 7.44496 8.79956 7.44496 8.90711Z" fill="#0C7B93" fill-opacity="0.75"/>
</svg>
