<svg width="14" height="14" viewBox="0 0 14 14" fill="none" xmlns="http://www.w3.org/2000/svg">
<path d="M0.00164092 6.17963C0.0508206 6.15995 0.0360674 6.10914 0.0459033 6.07471C0.265572 5.17144 0.998348 4.58621 1.92948 4.57309C1.96063 4.57309 1.99178 4.56981 2.03276 4.56817C2.19177 3.04524 2.87373 1.81739 4.11634 0.920682C5.036 0.256757 6.07533 -0.0399597 7.2081 0.00430199C8.02284 0.0354491 8.78512 0.256757 9.49003 0.664948C10.1966 1.07314 10.7687 1.62559 11.2048 2.31411C11.6408 3.00098 11.8884 3.75343 11.9589 4.56981C12.2654 4.57145 12.5588 4.6026 12.8326 4.72883C13.5719 5.0698 13.9605 5.65176 13.9916 6.46323C14.0064 6.86322 13.9982 7.26486 13.9932 7.66485C13.9834 8.67959 13.1851 9.50417 12.1703 9.54679C11.9654 9.55499 11.7605 9.55171 11.5556 9.55007C11.2703 9.54843 11.0998 9.3763 11.0982 9.08942C11.0966 7.90911 11.0982 6.73044 11.0982 5.55013C11.0982 5.09112 11.1113 4.63211 11.0212 4.17474C10.6982 2.51902 9.34413 1.19773 7.68514 0.930518C5.55566 0.5879 3.577 1.86821 3.02619 3.94523C2.93275 4.29932 2.89504 4.65997 2.89504 5.02554C2.89668 6.35503 2.89504 7.68616 2.89504 9.01565C2.89504 9.37466 2.79176 9.51892 2.44095 9.55335C1.75243 9.62056 1.10491 9.51729 0.578683 9.01074C0.291802 8.73369 0.116394 8.39599 0.0327884 8.00911C0.0262311 7.98124 0.040983 7.9419 0 7.92714C0.00163932 7.34518 0.00164092 6.76159 0.00164092 6.17963Z" fill="#0C7B93"/>
<path d="M6.99666 13.1795C6.8147 13.1795 6.63273 13.1828 6.45077 13.1795C5.96389 13.1697 5.58521 12.7844 5.58521 12.3074C5.58521 11.8386 5.96061 11.4451 6.43929 11.4336C6.81306 11.4238 7.18682 11.4238 7.55895 11.4336C8.03599 11.4468 8.4114 11.8386 8.4114 12.309C8.4114 12.7877 8.03107 13.1697 7.54419 13.1812C7.36223 13.1828 7.18026 13.1795 6.99666 13.1795Z" fill="#0C7B93"/>
<path d="M5.11798 12.0631C5.09011 12.2287 5.09011 12.3812 5.1147 12.5336C3.41636 12.7221 2.04097 11.4615 1.85901 10.0615C2.01802 10.0615 2.1754 10.0615 2.32949 10.0615C2.73441 11.4484 3.6639 12.1041 5.11798 12.0631Z" fill="#0C7B93"/>
</svg>
