<svg width="14" height="14" viewBox="0 0 14 14" fill="none" xmlns="http://www.w3.org/2000/svg">
<path d="M7 13.7846C5.61553 13.7846 4.26215 13.3804 3.11101 12.6231C1.95987 11.8657 1.06266 10.7893 0.532846 9.52988C0.003033 8.27048 -0.13559 6.88466 0.134506 5.54769C0.404603 4.21071 1.07129 2.98262 2.05026 2.01871C3.02922 1.05481 4.2765 0.398378 5.63437 0.132437C6.99224 -0.133504 8.3997 0.00298634 9.67879 0.524649C10.9579 1.04631 12.0511 1.92971 12.8203 3.06315C13.5895 4.19658 14 5.52914 14 6.89231C13.998 8.71966 13.2599 10.4716 11.9475 11.7637C10.6352 13.0559 8.8559 13.7826 7 13.7846ZM7 1.14872C5.84628 1.14872 4.71846 1.48558 3.75918 2.11669C2.79989 2.7478 2.05222 3.64483 1.61071 4.69433C1.16919 5.74384 1.05368 6.89868 1.27876 8.01283C1.50384 9.12697 2.05941 10.1504 2.87521 10.9536C3.69102 11.7569 4.73042 12.3039 5.86198 12.5255C6.99353 12.7472 8.16642 12.6334 9.23232 12.1987C10.2982 11.764 11.2093 11.0278 11.8502 10.0833C12.4912 9.13875 12.8333 8.02828 12.8333 6.89231C12.8316 5.36953 12.2165 3.9096 11.1229 2.83283C10.0293 1.75606 8.54658 1.15039 7 1.14872Z" fill="#0C7B93"/>
<path d="M7.58335 8.61533H6.41669V8.18859C6.40807 7.78333 6.50977 7.38319 6.71123 7.0297C6.91269 6.67621 7.20656 6.38224 7.56235 6.17833C7.77788 6.06145 7.95036 5.88047 8.05513 5.66126C8.1599 5.44205 8.19159 5.19583 8.14569 4.95782C8.10023 4.73106 7.98716 4.52279 7.82091 4.35962C7.65467 4.19644 7.44279 4.08576 7.21235 4.04171C7.04419 4.01107 6.87124 4.0172 6.70575 4.05967C6.54026 4.10214 6.38628 4.17992 6.25471 4.28749C6.12313 4.39506 6.01719 4.5298 5.94438 4.68217C5.87156 4.83453 5.83366 5.00079 5.83335 5.16918H4.66669C4.66683 4.76397 4.77582 4.36601 4.98259 4.01567C5.18937 3.66532 5.48657 3.37505 5.84406 3.17431C6.20154 2.97356 6.60659 2.86949 7.01812 2.87263C7.42964 2.87577 7.833 2.98602 8.18728 3.1922C8.54156 3.39838 8.83416 3.69316 9.03539 4.04662C9.23662 4.40008 9.33932 4.79966 9.33309 5.20482C9.32685 5.60998 9.21189 6.0063 8.99987 6.3536C8.78785 6.70089 8.48632 6.9868 8.12585 7.18231C7.95362 7.28833 7.8128 7.43717 7.71756 7.61382C7.62232 7.79047 7.57603 7.98872 7.58335 8.18859V8.61533Z" fill="#0C7B93"/>
<path d="M7.58329 9.76416H6.41663V10.9129H7.58329V9.76416Z" fill="#0C7B93"/>
</svg>
