<svg width="14" height="15" viewBox="0 0 14 15" fill="none" xmlns="http://www.w3.org/2000/svg">
<path d="M7.94228 0C7.98267 0.0525009 8.04123 0.0242308 8.09171 0.0343272C9.09327 0.21808 9.85251 1.09444 9.88078 2.11417C9.89289 2.50187 9.88684 2.88957 9.8828 3.27727C9.87876 3.59228 9.64251 3.82853 9.34163 3.83055C9.03471 3.83257 8.79441 3.5943 8.79038 3.27121C8.78634 2.93399 8.79037 2.59678 8.78836 2.25754C8.78634 1.55887 8.32191 1.09242 7.62122 1.09242C5.83821 1.09242 4.05317 1.09242 2.27016 1.09242C1.5614 1.09242 1.09697 1.55686 1.09697 2.26562C1.09697 5.42779 1.09697 8.58794 1.09697 11.7501C1.09697 12.4508 1.5614 12.9173 2.26006 12.9173C4.04914 12.9193 5.83619 12.9193 7.62526 12.9173C8.32392 12.9173 8.78634 12.4488 8.78836 11.7481C8.78836 11.425 8.78634 11.0999 8.78836 10.7768C8.79037 10.4275 9.01451 10.1852 9.33154 10.1811C9.65462 10.1791 9.88684 10.4255 9.8828 10.7809C9.87674 11.2372 9.91309 11.6936 9.85655 12.1479C9.74145 13.0687 8.9398 13.8683 8.017 13.9875C7.89382 14.0036 7.77266 14.0137 7.64949 14.0137C5.84225 14.0137 4.03702 14.0157 2.22978 14.0137C1.25649 14.0117 0.448782 13.4443 0.12368 12.5397C0.0388709 12.3014 0.000504817 12.055 0.000504817 11.8026C0.000504817 8.6041 -0.00151445 5.4076 0.00252408 2.20908C0.00454335 1.09242 0.773884 0.201928 1.8764 0.0262515C1.89458 0.0242322 1.91275 0.0222119 1.91679 0C3.92596 0 5.93311 0 7.94228 0Z" fill="#0C7B93"/>
<path d="M12.4957 6.48796C12.1929 6.18709 11.9122 5.91247 11.6376 5.63381C11.4094 5.4016 11.3993 5.08255 11.6032 4.86043C11.8031 4.64235 12.1383 4.60802 12.3524 4.81399C12.8108 5.25823 13.2671 5.70651 13.7033 6.17094C13.9012 6.38296 13.9839 6.65556 13.9981 6.95845C14.0203 7.42288 13.8507 7.78635 13.5236 8.10136C13.146 8.46483 12.7825 8.84243 12.4089 9.21195C12.1929 9.426 11.9001 9.44821 11.6779 9.27859C11.4094 9.07263 11.3831 8.70512 11.6275 8.45069C11.8678 8.2003 12.1161 7.95799 12.3625 7.71366C12.3968 7.67933 12.4372 7.64702 12.4675 7.58443C12.421 7.58443 12.3746 7.58443 12.3282 7.58443C10.216 7.58443 8.10384 7.58442 5.99371 7.58644C5.81198 7.58644 5.64841 7.54808 5.52322 7.41077C5.37379 7.24519 5.33139 7.04932 5.41418 6.83931C5.49697 6.63133 5.65851 6.51623 5.88265 6.49402C5.93717 6.48796 5.99169 6.48998 6.04621 6.48998C8.13615 6.48998 10.2241 6.48998 12.314 6.48998C12.3564 6.48796 12.4069 6.48796 12.4957 6.48796Z" fill="#0C7B93"/>
</svg>
