<svg width="14" height="15" viewBox="0 0 14 15" fill="none" xmlns="http://www.w3.org/2000/svg">
<path d="M3.76994 2.0584C3.89308 2.04588 4.00578 2.03335 4.11847 2.02083C4.42944 1.98535 4.69658 2.18571 4.73206 2.47789C4.76963 2.79512 4.5651 3.06017 4.2437 3.09356C3.52576 3.16869 2.80782 3.24174 2.08989 3.3127C1.68709 3.35235 1.40326 2.98295 1.52848 2.58015C1.68292 2.08344 1.84362 1.58882 2.00223 1.09211C2.06067 0.906364 2.11911 0.718532 2.18172 0.534874C2.2819 0.244778 2.56573 0.096599 2.84748 0.182167C3.13758 0.271909 3.29201 0.555743 3.21062 0.856274C3.18558 0.948103 3.15427 1.03993 3.11462 1.16098C3.39219 0.994019 3.64055 0.843752 3.90143 0.716444C5.10772 0.129991 6.37872 -0.103755 7.71024 0.0423368C10.7009 0.372086 13.1052 2.46537 13.796 5.39972C14.299 7.53892 13.869 9.51741 12.5354 11.2684C11.4481 12.698 9.9997 13.5683 8.23408 13.9064C7.83546 13.9836 7.43058 14.0149 7.0257 14.0191C6.68969 14.0233 6.43924 13.7895 6.43924 13.4786C6.43924 13.1718 6.68134 12.9443 7.01317 12.938C8.7141 12.9088 10.1625 12.2827 11.3187 11.0389C12.4603 9.8096 12.9841 8.33825 12.8965 6.66028C12.7587 4.03898 10.8491 1.75578 8.19234 1.20481C6.61873 0.879231 5.1432 1.15889 3.78038 2.01666C3.77829 2.02083 3.77829 2.02709 3.76994 2.0584Z" fill="#0C7B93" fill-opacity="0.75"/>
<path d="M4.7947 5.05533C4.76965 3.72381 5.9676 2.88482 7.02155 2.91613C7.98367 2.94326 8.8623 3.56728 9.1044 4.42505C9.29014 5.08037 9.15866 5.70648 8.879 6.30754C8.66195 6.77295 8.37185 7.18826 7.94819 7.49088C7.34086 7.92289 6.53319 7.89368 5.94882 7.43036C5.2935 6.91069 4.79887 5.8964 4.7947 5.05533ZM6.99233 4.03686C6.33075 4.03269 5.8549 4.5461 5.92586 5.19725C5.98221 5.70857 6.2264 6.13015 6.5791 6.4912C6.83581 6.75208 7.1572 6.74581 7.41808 6.48494C7.69774 6.20319 7.89184 5.86718 8.00036 5.48526C8.06715 5.2536 8.09845 5.01985 8.0421 4.78193C7.94401 4.3687 7.47861 4.03895 6.99233 4.03686Z" fill="#0C7B93" fill-opacity="0.75"/>
<path d="M9.8453 11.1036C9.61781 11.1057 9.41954 10.9701 9.32563 10.7468C9.30267 10.6904 9.28597 10.632 9.2651 10.5756C9.06475 10.0267 8.6703 9.70116 8.09428 9.66777C7.35965 9.62394 6.62293 9.62394 5.8883 9.66777C5.3102 9.70325 4.91784 10.0309 4.71748 10.5777C4.68826 10.657 4.66531 10.7384 4.62566 10.8094C4.48791 11.064 4.19364 11.1683 3.93276 11.064C3.6698 10.9575 3.53206 10.6842 3.60093 10.4045C3.85972 9.36724 4.75505 8.60339 5.82152 8.54913C6.60206 8.50739 7.38679 8.50739 8.16733 8.54913C9.23171 8.60548 10.127 9.37141 10.3858 10.4066C10.4735 10.7655 10.2147 11.1016 9.8453 11.1036Z" fill="#0C7B93" fill-opacity="0.75"/>
<path d="M1.51398 9.93896C1.70598 9.94314 1.85625 10.0162 1.95851 10.1706C2.14217 10.4461 2.34252 10.707 2.55331 10.9616C2.75367 11.2016 2.71819 11.5314 2.48653 11.7213C2.25904 11.9091 1.93764 11.8841 1.7352 11.6566C1.48684 11.379 1.26353 11.0806 1.06527 10.7654C0.952567 10.5859 0.946306 10.3939 1.05066 10.2103C1.15292 10.0329 1.31362 9.94314 1.51398 9.93896Z" fill="#0C7B93" fill-opacity="0.75"/>
<path d="M5.23084 13.0195C5.22458 13.4369 4.86561 13.6957 4.51708 13.5725C4.14977 13.441 3.79706 13.2741 3.46313 13.0716C3.21895 12.9256 3.14382 12.6104 3.27739 12.3621C3.41305 12.1137 3.71775 12.001 3.97028 12.1304C4.28542 12.289 4.60056 12.4435 4.92405 12.5812C5.13275 12.6709 5.22667 12.8504 5.23084 13.0195Z" fill="#0C7B93" fill-opacity="0.75"/>
<path d="M0.683314 6.01127C0.372348 6.0071 0.113557 5.73996 0.163646 5.43108C0.23043 5.00324 0.372348 4.5921 0.566441 4.20391C0.685401 3.96808 0.990106 3.8846 1.23429 3.99104C1.47429 4.0933 1.62039 4.36044 1.53899 4.60879C1.42212 4.96567 1.29899 5.32047 1.18629 5.67944C1.12159 5.8944 0.908712 6.01336 0.683314 6.01127Z" fill="#0C7B93" fill-opacity="0.75"/>
<path d="M0.528844 7.00671C0.804331 7.00671 1.03182 7.20289 1.06521 7.47629C1.10277 7.79978 1.14869 8.12119 1.22382 8.43841C1.29478 8.74312 1.12156 9.0186 0.829376 9.09374C0.549715 9.16469 0.25753 8.99774 0.182398 8.70555C0.0843076 8.33198 0.017524 7.95214 0.000827791 7.56395C-0.0158684 7.2509 0.222052 7.00671 0.528844 7.00671Z" fill="#0C7B93" fill-opacity="0.75"/>
</svg>
