<svg width="13" height="14" viewBox="0 0 13 14" fill="none" xmlns="http://www.w3.org/2000/svg">
<path fill-rule="evenodd" clip-rule="evenodd" d="M6.125 0C3.70876 0 1.75 1.95876 1.75 4.375V6.95382C1.75 6.99701 1.73722 7.03923 1.71326 7.07516L0.22302 9.31052C0.077595 9.52866 0 9.78495 0 10.0471C0 10.7805 0.594519 11.375 1.32789 11.375H10.9221C11.6555 11.375 12.25 10.7805 12.25 10.0471C12.25 9.78495 12.1724 9.52866 12.027 9.31052L10.5367 7.07516C10.5128 7.03923 10.5 6.99701 10.5 6.95382V4.375C10.5 1.95876 8.54123 0 6.125 0ZM3.0625 4.375C3.0625 2.68362 4.43362 1.3125 6.125 1.3125C7.81637 1.3125 9.1875 2.68362 9.1875 4.375V6.95382C9.1875 7.25613 9.27701 7.55167 9.44466 7.80321L10.9349 10.0385C10.9366 10.0411 10.9375 10.044 10.9375 10.0471C10.9375 10.0491 10.9371 10.0514 10.9371 10.0514L10.9365 10.0529C10.9365 10.0529 10.9349 10.0561 10.933 10.058C10.9311 10.0599 10.9279 10.0615 10.9279 10.0615C10.9279 10.0615 10.9254 10.0625 10.9221 10.0625H1.32789C1.32456 10.0625 1.3221 10.0615 1.3221 10.0615C1.3221 10.0615 1.31888 10.0599 1.31701 10.058C1.31514 10.0561 1.31344 10.0529 1.31344 10.0529C1.31344 10.0529 1.3125 10.0504 1.3125 10.0471C1.3125 10.044 1.3134 10.0411 1.31508 10.0385L2.80533 7.80321C2.97301 7.55167 3.0625 7.25613 3.0625 6.95382V4.375Z" fill="#0C7B93"/>
<path d="M7.86151 12.4683C7.75405 13.3318 7.01756 14 6.12499 14C5.23242 14 4.49594 13.3318 4.38848 12.4683C4.37356 12.3484 4.47293 12.25 4.59374 12.25H7.65624C7.77705 12.25 7.87639 12.3484 7.86151 12.4683Z" fill="#0C7B93"/>
</svg>
