<svg width="14" height="14" viewBox="0 0 14 14" fill="none" xmlns="http://www.w3.org/2000/svg">
<path d="M6.42499 14.0058C6.28174 13.9427 6.12656 13.9529 5.9782 13.9308C3.07063 13.4908 0.712185 11.3063 0.152842 8.4226C-0.360458 5.77425 0.423986 3.51641 2.43285 1.7139C3.52936 0.729929 4.83734 0.192755 6.2988 0.0375711C9.80492 -0.332482 13.1115 2.07031 13.838 5.51334C13.8994 5.80836 13.9471 6.10338 13.9727 6.40351C13.9744 6.42568 13.9693 6.44956 14 6.45808C14 6.83155 14 7.20501 14 7.57847C13.9625 7.58871 13.9744 7.62111 13.971 7.64669C13.9454 7.88202 13.913 8.11565 13.8687 8.34757C13.3093 11.2415 10.9373 13.5061 8.02116 13.9291C7.85404 13.9529 7.68181 13.9478 7.5198 14.0041C7.15316 14.0058 6.78822 14.0058 6.42499 14.0058ZM7.00139 0.661717C3.51231 0.660012 0.661025 3.50277 0.655909 6.99014C0.649088 10.4929 3.49696 13.3493 6.99798 13.351C10.4922 13.3527 13.3435 10.5031 13.3452 7.0089C13.3435 3.513 10.4956 0.663422 7.00139 0.661717Z" fill="#0C7B93"/>
<path d="M11.4284 6.14414C11.4284 6.20383 11.3653 6.28909 11.2818 6.36583C10.6678 6.93711 10.0573 7.5101 9.44172 8.07968C9.36669 8.14959 9.34452 8.20928 9.36498 8.3133C9.5304 9.14209 9.68558 9.97428 9.84758 10.8048C9.87658 10.9531 9.84929 11.0776 9.7248 11.168C9.5952 11.2635 9.4656 11.2447 9.32917 11.168C8.59418 10.7587 7.85748 10.3546 7.1242 9.94529C7.03723 9.89584 6.97242 9.88902 6.87863 9.94018C6.13852 10.3563 5.3933 10.7655 4.64978 11.1765C4.51848 11.2482 4.38887 11.2584 4.26609 11.1646C4.15013 11.0759 4.11432 10.9565 4.14672 10.8133C4.17741 10.6803 4.19788 10.5456 4.22346 10.4108C4.36159 9.69631 4.49972 8.98179 4.64126 8.26897C4.65831 8.18711 4.6225 8.14448 4.56964 8.09502C3.95913 7.52715 3.35034 6.95758 2.74154 6.388C2.70232 6.35049 2.65968 6.31467 2.62899 6.27034C2.48062 6.06058 2.60682 5.79285 2.87626 5.75363C3.12012 5.71781 3.36398 5.69394 3.60784 5.66495C4.22175 5.58992 4.83566 5.51147 5.45128 5.43985C5.53825 5.42962 5.57236 5.38187 5.60476 5.31195C5.95947 4.54967 6.31588 3.79081 6.67058 3.02853C6.73709 2.88529 6.82918 2.77956 6.99459 2.77785C7.16683 2.77615 7.26062 2.88358 7.32883 3.03194C7.68013 3.79081 8.03825 4.54456 8.38784 5.30342C8.42876 5.3938 8.47822 5.43303 8.57713 5.44496C9.41785 5.54387 10.2569 5.6479 11.0976 5.75192C11.3005 5.7775 11.4284 5.9071 11.4284 6.14414ZM6.99971 3.88631C6.96731 3.95111 6.94514 3.99204 6.92467 4.03638C6.64841 4.62812 6.37045 5.21986 6.09589 5.81331C6.02938 5.95827 5.92877 6.04182 5.76677 6.05888C5.42741 6.09639 5.08976 6.14244 4.7504 6.18507C4.38717 6.23111 4.02223 6.27716 3.63512 6.32491C3.68458 6.37095 3.71698 6.40165 3.74938 6.43234C4.23198 6.88425 4.71288 7.33616 5.19719 7.78466C5.31827 7.8955 5.35578 8.0217 5.32509 8.17688C5.25688 8.51965 5.19037 8.86412 5.12386 9.20689C5.05565 9.55648 4.98914 9.90777 4.91752 10.2744C4.96697 10.2488 4.99937 10.2335 5.03178 10.2164C5.60817 9.89754 6.18627 9.58376 6.76096 9.25805C6.92638 9.16426 7.06963 9.16426 7.23334 9.25805C7.80632 9.58206 8.38442 9.89754 8.96253 10.2147C8.99493 10.2318 9.02392 10.2642 9.07167 10.2557C8.93865 9.57012 8.81075 8.89141 8.67433 8.2144C8.63852 8.03193 8.67433 7.89209 8.81587 7.76249C9.17399 7.44018 9.52357 7.10594 9.87657 6.77511C10.0318 6.63016 10.1869 6.4835 10.3558 6.32491C10.2739 6.31297 10.2125 6.30274 10.1511 6.29421C9.50993 6.21406 8.86873 6.13391 8.22754 6.05717C8.06383 6.03841 7.96492 5.95656 7.89841 5.81161C7.68013 5.33753 7.45844 4.86516 7.23675 4.39108C7.16342 4.23078 7.08668 4.06878 6.99971 3.88631Z" fill="#0C7B93"/>
</svg>
