<svg width="14" height="14" viewBox="0 0 14 14" fill="none" xmlns="http://www.w3.org/2000/svg">
<path d="M14 7C14 6.05675 13.587 5.17067 12.8801 4.56458C12.9513 3.6365 12.617 2.71775 11.9498 2.05042C11.2831 1.38308 10.3615 1.04883 9.4358 1.12C8.82918 0.413 7.94317 0 7 0C6.05683 0 5.17082 0.413 4.5642 1.12C3.63853 1.04883 2.71752 1.38308 2.05025 2.05042C1.38297 2.71833 1.04875 3.6365 1.11991 4.56458C0.412966 5.17067 0 6.05675 0 7C0 7.94325 0.412966 8.82933 1.11991 9.43542C1.04875 10.3635 1.38297 11.2823 2.05025 11.9496C2.71752 12.6163 3.63853 12.9494 4.5642 12.88C5.17082 13.587 6.05683 14 7 14C7.94317 14 8.82918 13.587 9.4358 12.88C10.3621 12.9506 11.2831 12.6163 11.9498 11.9496C12.617 11.2817 12.9513 10.3635 12.8801 9.43542C13.587 8.82933 14 7.94325 14 7ZM11.9317 8.694L11.6109 8.90983L11.6849 9.289C11.815 9.95692 11.6056 10.6435 11.125 11.1242C10.6444 11.6048 9.959 11.8142 9.28939 11.6842L8.91084 11.6107L8.69503 11.9309C8.31414 12.4956 7.68069 12.8328 7.00117 12.8328C6.32164 12.8328 5.68819 12.4956 5.30731 11.9309L5.09149 11.6107L4.71294 11.6842C4.04275 11.8137 3.35797 11.6042 2.87734 11.1242C2.39672 10.6429 2.18732 9.95692 2.31739 9.289L2.39147 8.90983L2.07066 8.694C1.50604 8.31308 1.1689 7.67958 1.1689 7C1.1689 6.32042 1.50604 5.68692 2.07066 5.306L2.39147 5.09017L2.31739 4.711C2.18732 4.04308 2.39672 3.3565 2.87734 2.87583C3.35797 2.39517 4.04391 2.1875 4.71294 2.31583L5.09149 2.38933L5.30731 2.06908C5.68819 1.50442 6.32164 1.16725 7.00117 1.16725C7.68069 1.16725 8.31414 1.50442 8.69503 2.06908L8.91084 2.38933L9.28939 2.31583C9.95842 2.18633 10.6444 2.39517 11.125 2.87583C11.6056 3.35708 11.815 4.04308 11.6849 4.711L11.6109 5.09017L11.9317 5.306C12.4963 5.68692 12.8334 6.32042 12.8334 7C12.8334 7.67958 12.4963 8.31308 11.9317 8.694ZM5.25073 5.83333C4.92876 5.83333 4.66744 5.572 4.66744 5.25C4.66744 4.928 4.92876 4.66667 5.25073 4.66667C5.5727 4.66667 5.83401 4.928 5.83401 5.25C5.83401 5.572 5.5727 5.83333 5.25073 5.83333ZM9.33372 8.75C9.33372 9.072 9.07241 9.33333 8.75044 9.33333C8.42846 9.33333 8.16715 9.072 8.16715 8.75C8.16715 8.428 8.42846 8.16667 8.75044 8.16667C9.07241 8.16667 9.33372 8.428 9.33372 8.75ZM9.08058 4.66667L6.28081 9.33333H4.92059L7.72036 4.66667H9.08058Z" fill="#0C7B93"/>
</svg>
