<svg width="14" height="14" viewBox="0 0 14 14" fill="none" xmlns="http://www.w3.org/2000/svg">
<path d="M7.54718 0C7.62039 0 7.69248 0 7.76569 0C7.77696 0.0371693 7.80849 0.0247795 7.83327 0.0259059C8.58905 0.0585698 9.33919 0.139667 10.0882 0.244416C11.4961 0.441526 12.8106 1.6377 13.0978 3.03099C13.3118 4.07286 13.3715 5.13274 13.3952 6.19376C13.4143 7.04077 13.3884 7.88778 13.3152 8.73141C13.3084 8.81251 13.3242 8.87671 13.3749 8.94429C13.6283 9.27769 13.7984 9.65051 13.9065 10.056C13.9426 10.1934 13.9414 10.3398 14 10.4727C14 10.7194 14 10.9649 14 11.2116C13.9426 11.2972 13.9527 11.3997 13.9313 11.4932C13.4075 13.774 10.8124 14.7438 8.9247 13.3618C8.87289 13.3235 8.82445 13.3089 8.7625 13.3134C8.49894 13.3336 8.23538 13.355 7.97181 13.3674C6.41633 13.4406 4.86761 13.3821 3.32452 13.1568C1.94926 12.9563 0.662974 11.839 0.329576 10.484C0.125708 9.65501 0.07277 8.80124 0.0310953 7.95085C-0.045496 6.40439 0.0175793 4.86468 0.240595 3.3306C0.448969 1.90014 1.62712 0.596962 3.04068 0.298481C3.72325 0.154309 4.4182 0.0991182 5.11315 0.0484327C5.2776 0.0382957 5.44543 0.0574435 5.60537 0C5.72363 0 5.8419 0 5.96129 0C5.99733 0.0416747 6.0345 0.0326639 6.07055 0C6.50757 0 6.94571 0 7.38273 0C7.4368 0.0382957 7.49199 0.0461801 7.54718 0ZM12.3263 8.01393C12.4006 6.48323 12.3432 4.96717 12.128 3.45449C11.9929 2.50499 11.0974 1.47776 10.0544 1.29417C9.35834 1.1714 8.6555 1.10494 7.95041 1.07003C6.44111 0.996813 4.93744 1.04975 3.44054 1.27727C2.47751 1.4237 1.50886 2.29661 1.31625 3.254C1.17208 3.96923 1.11013 4.69572 1.07296 5.42447C0.997498 6.89772 1.04593 8.36535 1.25768 9.82734C1.40636 10.8501 1.98079 11.5416 2.89651 11.9685C3.28623 12.1499 3.71762 12.1656 4.13661 12.2163C5.4015 12.3672 6.67201 12.3932 7.94365 12.3289C7.96731 12.3278 7.99997 12.3413 8.01912 12.2952C7.71388 11.6982 7.59561 11.0573 7.69248 10.386C7.78934 9.70908 8.0653 9.10761 8.55639 8.63004C9.65907 7.55889 10.9251 7.40796 12.3263 8.01393ZM10.8181 12.962C11.9929 12.9665 12.9559 12.0158 12.9615 10.8467C12.9671 9.67078 12.0199 8.70663 10.8507 8.69875C9.67259 8.69086 8.70281 9.64713 8.69943 10.8208C8.69492 11.9944 9.64781 12.9563 10.8181 12.962Z" fill="#0C7B93"/>
<path d="M7.5472 0C7.49201 0.0461801 7.43794 0.0382957 7.38275 0C7.43682 0 7.49201 0 7.5472 0Z" fill="#0C7B93"/>
<path d="M6.07056 0C6.03452 0.0326639 5.99735 0.0416747 5.9613 0C5.99735 0 6.03339 0 6.07056 0Z" fill="#0C7B93"/>
<path d="M6.69224 3.49735C7.80844 3.49735 8.92465 3.49623 10.0409 3.49848C10.283 3.49848 10.4711 3.64265 10.5398 3.86792C10.6029 4.07742 10.5241 4.30607 10.3438 4.43672C10.2605 4.49754 10.1659 4.5257 10.0645 4.53584C10.033 4.53922 10.0003 4.53809 9.96877 4.53809C7.78704 4.53809 5.60532 4.53809 3.42246 4.53809C3.33123 4.53809 3.24112 4.53133 3.15439 4.49754C2.92349 4.40518 2.79284 4.17203 2.83564 3.92649C2.87957 3.67982 3.0778 3.50411 3.32898 3.4996C3.61169 3.4951 3.89328 3.49848 4.17599 3.49848C5.01624 3.49623 5.85424 3.49735 6.69224 3.49735Z" fill="#0C7B93"/>
<path d="M5.33169 7.76956C4.68517 7.76956 4.03865 7.76956 3.39213 7.76956C3.06098 7.76956 2.82783 7.55555 2.82558 7.25482C2.82332 6.95521 3.05986 6.7322 3.38762 6.73107C4.68517 6.72994 5.98272 6.72994 7.28026 6.73107C7.58776 6.73107 7.80176 6.91579 7.8378 7.20188C7.86821 7.44179 7.70377 7.67945 7.46161 7.75154C7.39402 7.77181 7.32644 7.76843 7.25886 7.76843C6.61572 7.76956 5.97371 7.76956 5.33169 7.76956Z" fill="#0C7B93"/>
<path d="M11.3486 10.1314C11.3486 10.2812 11.352 10.4321 11.3475 10.5819C11.3407 10.868 11.1109 11.0922 10.8305 11.0922C10.5557 11.0922 10.3202 10.8759 10.3124 10.5966C10.3034 10.2913 10.3034 9.98609 10.3124 9.68085C10.3202 9.39589 10.559 9.18076 10.8429 9.18639C11.1188 9.19202 11.3407 9.41278 11.3475 9.69324C11.352 9.83967 11.3486 9.98609 11.3486 10.1314Z" fill="#0C7B93"/>
<path d="M11.3475 11.9461C11.3543 12.3831 11.2664 12.471 10.8271 12.4698C10.7821 12.4698 10.7359 12.4698 10.6909 12.4665C10.416 12.4496 10.3169 12.3504 10.309 12.0767C10.3056 11.954 10.3045 11.8312 10.318 11.7096C10.3383 11.535 10.4386 11.4471 10.6143 11.4291C10.7505 11.4156 10.8857 11.4145 11.022 11.4268C11.2337 11.446 11.3317 11.5429 11.3464 11.7546C11.3509 11.8177 11.3475 11.8819 11.3475 11.9461Z" fill="#0C7B93"/>
</svg>
