<svg width="14" height="14" viewBox="0 0 14 14" fill="none" xmlns="http://www.w3.org/2000/svg">
<path d="M8.75 3.5C8.75 3.82258 8.48867 4.08333 8.16667 4.08333H5.83333C5.51133 4.08333 5.25 3.82258 5.25 3.5C5.25 3.17742 5.51133 2.91667 5.83333 2.91667H8.16667C8.48867 2.91667 8.75 3.17742 8.75 3.5ZM8.16667 5.83333H5.83333C5.51133 5.83333 5.25 6.09408 5.25 6.41667C5.25 6.73925 5.51133 7 5.83333 7H8.16667C8.48867 7 8.75 6.73925 8.75 6.41667C8.75 6.09408 8.48867 5.83333 8.16667 5.83333ZM7 12.8333H2.91667C1.95183 12.8333 1.16667 12.0482 1.16667 11.0833V2.91667C1.16667 1.95183 1.95183 1.16667 2.91667 1.16667H8.16667C9.1315 1.16667 9.91667 1.95183 9.91667 2.91667V6.125C9.91667 6.44758 10.178 6.70833 10.5 6.70833C10.822 6.70833 11.0833 6.44758 11.0833 6.125V2.91667C11.0833 1.30842 9.77492 0 8.16667 0H2.91667C1.30842 0 0 1.30842 0 2.91667V11.0833C0 12.6916 1.30842 14 2.91667 14H7C7.322 14 7.58333 13.7392 7.58333 13.4167C7.58333 13.0941 7.322 12.8333 7 12.8333ZM14 9.625C14 11.1708 12.1835 13.0573 11.3038 13.7282C11.0676 13.909 10.7835 13.9994 10.5 13.9994C10.2165 13.9994 9.93242 13.909 9.69617 13.7282C8.8165 13.0573 7 11.1708 7 9.625C7 8.49917 7.91583 7.58333 9.04167 7.58333C9.61275 7.58333 10.129 7.81842 10.5 8.19758C10.871 7.819 11.3872 7.58333 11.9583 7.58333C13.0842 7.58333 14 8.49917 14 9.625ZM12.8333 9.625C12.8333 9.14258 12.4407 8.75 11.9583 8.75C11.4759 8.75 11.0833 9.14258 11.0833 9.625C11.0833 9.94758 10.822 10.2083 10.5 10.2083C10.178 10.2083 9.91667 9.94758 9.91667 9.625C9.91667 9.14258 9.52408 8.75 9.04167 8.75C8.55925 8.75 8.16667 9.14258 8.16667 9.625C8.16667 10.6032 9.6005 12.1887 10.4037 12.8007C10.4609 12.8438 10.5397 12.8438 10.5963 12.8007C11.3995 12.1882 12.8333 10.6027 12.8333 9.625ZM3.20833 2.625C2.72533 2.625 2.33333 3.017 2.33333 3.5C2.33333 3.983 2.72533 4.375 3.20833 4.375C3.69133 4.375 4.08333 3.983 4.08333 3.5C4.08333 3.017 3.69133 2.625 3.20833 2.625ZM3.20833 8.45833C2.72533 8.45833 2.33333 8.85033 2.33333 9.33333C2.33333 9.81633 2.72533 10.2083 3.20833 10.2083C3.69133 10.2083 4.08333 9.81633 4.08333 9.33333C4.08333 8.85033 3.69133 8.45833 3.20833 8.45833ZM3.20833 5.54167C2.72533 5.54167 2.33333 5.93367 2.33333 6.41667C2.33333 6.89967 2.72533 7.29167 3.20833 7.29167C3.69133 7.29167 4.08333 6.89967 4.08333 6.41667C4.08333 5.93367 3.69133 5.54167 3.20833 5.54167Z" fill="#0C7B93"/>
</svg>
