<svg width="26" height="21" viewBox="0 0 26 21" fill="none" xmlns="http://www.w3.org/2000/svg">
<path d="M24.4505 17.8052C24.4505 18.3616 24.2294 18.8952 23.836 19.2887C23.4426 19.6821 22.909 19.9031 22.3526 19.9031H3.47144C2.91504 19.9031 2.38143 19.6821 1.988 19.2887C1.59456 18.8952 1.37354 18.3616 1.37354 17.8052V6.26676C1.37354 5.71036 1.59456 5.17675 1.988 4.78332C2.38143 4.38988 2.91504 4.16886 3.47144 4.16886H7.66724L9.76514 1.022H16.0589L18.1568 4.16886H22.3526C22.909 4.16886 23.4426 4.38988 23.836 4.78332C24.2294 5.17675 24.4505 5.71036 24.4505 6.26676V17.8052Z" stroke="#0C7B93" stroke-width="2" stroke-linecap="round" stroke-linejoin="round"/>
<path d="M12.9126 15.7073C15.2299 15.7073 17.1084 13.8288 17.1084 11.5115C17.1084 9.1942 15.2299 7.31567 12.9126 7.31567C10.5953 7.31567 8.7168 9.1942 8.7168 11.5115C8.7168 13.8288 10.5953 15.7073 12.9126 15.7073Z" stroke="#0C7B93" stroke-width="2" stroke-linecap="round" stroke-linejoin="round"/>
</svg>
