<svg width="26" height="26" viewBox="0 0 26 26" fill="none" xmlns="http://www.w3.org/2000/svg">
<path d="M21.8862 1.37363H3.93762C2.52151 1.37363 1.37354 2.52161 1.37354 3.93771V21.8863C1.37354 23.3024 2.52151 24.4504 3.93762 24.4504H21.8862C23.3023 24.4504 24.4503 23.3024 24.4503 21.8863V3.93771C24.4503 2.52161 23.3023 1.37363 21.8862 1.37363Z" stroke="#0C7B93" stroke-width="2" stroke-linecap="round" stroke-linejoin="round"/>
<path d="M8.42477 10.348C9.48685 10.348 10.3478 9.48697 10.3478 8.42489C10.3478 7.36282 9.48685 6.50183 8.42477 6.50183C7.36269 6.50183 6.50171 7.36282 6.50171 8.42489C6.50171 9.48697 7.36269 10.348 8.42477 10.348Z" stroke="#0C7B93" stroke-width="2" stroke-linecap="round" stroke-linejoin="round"/>
<path d="M24.4509 16.7582L18.0407 10.348L3.93823 24.4504" stroke="#0C7B93" stroke-width="2" stroke-linecap="round" stroke-linejoin="round"/>
</svg>
