<svg width="26" height="31" viewBox="0 0 26 31" fill="none" xmlns="http://www.w3.org/2000/svg">
<path d="M16.2006 1H4.75028C3.99107 1 3.26296 1.3029 2.72613 1.84207C2.18929 2.38123 1.8877 3.1125 1.8877 3.875V26.875C1.8877 27.6375 2.18929 28.3688 2.72613 28.9079C3.26296 29.4471 3.99107 29.75 4.75028 29.75H21.9258C22.685 29.75 23.4131 29.4471 23.9499 28.9079C24.4868 28.3688 24.7884 27.6375 24.7884 26.875V9.625L16.2006 1Z" stroke="#0C7B93" stroke-width="2" stroke-linecap="round" stroke-linejoin="round"/>
<path d="M16.2007 1V9.625H24.7884" stroke="#0C7B93" stroke-width="2" stroke-linecap="round" stroke-linejoin="round"/>
<path d="M19.0631 16.8125H7.61279" stroke="#0C7B93" stroke-width="2" stroke-linecap="round" stroke-linejoin="round"/>
<path d="M19.0631 22.5625H7.61279" stroke="#0C7B93" stroke-width="2" stroke-linecap="round" stroke-linejoin="round"/>
<path d="M10.4754 11.0625H9.04408H7.61279" stroke="#0C7B93" stroke-width="2" stroke-linecap="round" stroke-linejoin="round"/>
</svg>
